<svg width="180" height="32" viewBox="0 0 180 32" fill="none" xmlns="http://www.w3.org/2000/svg">
<path fill-rule="evenodd" clip-rule="evenodd" d="M27.0328 10.0433L27.5684 8.7302C27.5684 8.7302 26.8868 8.00071 26.0591 7.17396C25.2314 6.34722 23.4787 6.83354 23.4787 6.83354L21.4825 4.57141H17.977H14.4716L12.4754 6.83354C12.4754 6.83354 10.7227 6.34722 9.89499 7.17396C9.0673 8.00071 8.38569 8.7302 8.38569 8.7302L8.92124 10.0433L8.23962 11.9886C8.23962 11.9886 10.2443 19.573 10.4792 20.4992C10.9418 22.3229 11.2582 23.0281 12.5728 23.9521C13.8873 24.8761 16.273 26.481 16.6625 26.7241C17.052 26.9673 17.5389 27.3815 17.977 27.3815C18.4152 27.3815 18.9021 26.9673 19.2916 26.7241C19.6811 26.481 22.0668 24.8761 23.3813 23.9521C24.6959 23.0281 25.0123 22.3229 25.4749 20.4992C25.7097 19.573 27.7145 11.9886 27.7145 11.9886L27.0328 10.0433Z" fill="#FF4724"/>
<path d="M20.4601 8.6816C20.7522 8.6816 22.9188 8.26823 22.9188 8.26823C22.9188 8.26823 25.4863 11.3685 25.4863 12.0311C25.4863 12.579 25.2655 12.7934 25.0055 13.046C24.951 13.0989 24.8948 13.1534 24.8386 13.2131L22.9134 15.2551C22.8943 15.2754 22.8731 15.2967 22.8506 15.3193C22.6584 15.5123 22.3755 15.7965 22.5751 16.2685C22.5885 16.3 22.6022 16.3321 22.6161 16.3646C22.835 16.876 23.1053 17.5073 22.7613 18.147C22.3954 18.8275 21.7685 19.2817 21.3669 19.2066C20.9652 19.1315 20.0219 18.639 19.675 18.4141C19.3281 18.1892 18.2286 17.2835 18.2286 16.9369C18.2286 16.6479 19.0193 16.1671 19.4035 15.9335C19.4799 15.887 19.5402 15.8503 19.5751 15.8268C19.6147 15.8002 19.6811 15.759 19.7627 15.7083C20.1133 15.4907 20.7465 15.0978 20.7624 14.9236C20.782 14.7088 20.7745 14.6458 20.4919 14.1151C20.4318 14.0023 20.3615 13.8814 20.2888 13.7565C20.0197 13.294 19.7183 12.776 19.785 12.405C19.8603 11.9862 20.5173 11.7461 21.0738 11.5427C21.1433 11.5173 21.2113 11.4924 21.2764 11.4679C21.4388 11.4066 21.6429 11.3303 21.8561 11.2505C22.4117 11.0426 23.029 10.8117 23.1308 10.7648C23.2717 10.6998 23.2353 10.638 22.8085 10.5976C22.752 10.5923 22.6818 10.5848 22.6012 10.5763C22.0728 10.5202 21.0983 10.4167 20.6246 10.5486C20.5314 10.5746 20.4269 10.6028 20.3174 10.6325C19.7851 10.7764 19.1328 10.9529 19.0701 11.0546C19.0592 11.0724 19.0484 11.0877 19.0382 11.1022C18.9783 11.1873 18.9392 11.2428 19.0055 11.6045C19.0253 11.7122 19.0659 11.9241 19.1161 12.1861C19.2631 12.9531 19.4925 14.1496 19.5214 14.4184C19.5254 14.456 19.5299 14.4923 19.5342 14.5273C19.5709 14.8271 19.5954 15.0267 19.2468 15.1063C19.2178 15.1129 19.1872 15.1199 19.1556 15.1272C18.7622 15.2174 18.1854 15.3496 17.977 15.3496C17.7685 15.3496 17.1913 15.2173 16.798 15.1271C16.7665 15.1199 16.7361 15.1129 16.7073 15.1063C16.3586 15.0267 16.383 14.8271 16.4198 14.5272C16.4241 14.4923 16.4286 14.456 16.4326 14.4184C16.4616 14.1492 16.6915 12.9498 16.8385 12.1829C16.8885 11.9224 16.9288 11.7118 16.9485 11.6045C17.0148 11.2428 16.9757 11.1873 16.9158 11.1022C16.9056 11.0877 16.8949 11.0724 16.8839 11.0546C16.8212 10.9529 16.169 10.7765 15.6367 10.6325C15.5271 10.6029 15.4226 10.5746 15.3294 10.5486C14.8557 10.4167 13.8813 10.5202 13.3528 10.5763C13.2722 10.5848 13.202 10.5923 13.1455 10.5976C12.7187 10.638 12.6823 10.6998 12.8232 10.7648C12.925 10.8116 13.542 11.0425 14.0975 11.2503C14.3109 11.3302 14.5151 11.4066 14.6776 11.4679C14.7427 11.4925 14.8108 11.5173 14.8803 11.5427C15.4368 11.7461 16.0937 11.9863 16.169 12.405C16.2357 12.776 15.9344 13.2938 15.6653 13.7563C15.5926 13.8813 15.5223 14.0022 15.4621 14.1151C15.1795 14.6458 15.172 14.7088 15.1916 14.9236C15.2075 15.0978 15.8404 15.4906 16.1911 15.7082C16.2728 15.7589 16.3392 15.8001 16.3789 15.8268C16.4137 15.8503 16.474 15.8869 16.5503 15.9333C16.9345 16.1669 17.7254 16.6479 17.7254 16.9369C17.7254 17.2835 16.6259 18.1892 16.2791 18.4141C15.9322 18.639 14.9888 19.1315 14.5872 19.2066C14.1855 19.2817 13.5587 18.8275 13.1927 18.147C12.8488 17.5073 13.1189 16.8761 13.3378 16.3648C13.3518 16.3322 13.3655 16.3001 13.3789 16.2685C13.5786 15.7964 13.2955 15.5122 13.1033 15.3192C13.0809 15.2967 13.0596 15.2753 13.0406 15.2551L11.1154 13.2131C11.0592 13.1535 11.003 13.0989 10.9485 13.046C10.6885 12.7935 10.4677 12.579 10.4677 12.0311C10.4677 11.3685 13.0353 8.26823 13.0353 8.26823C13.0353 8.26823 15.2019 8.6816 15.494 8.6816C15.7271 8.6816 16.1772 8.52677 16.6464 8.36537C16.7652 8.3245 16.8852 8.28322 17.0033 8.24391C17.5875 8.04938 17.977 8.04797 17.977 8.04797C17.977 8.04797 18.3665 8.04938 18.9508 8.24391C19.0688 8.28322 19.1888 8.3245 19.3076 8.36537C19.7768 8.52677 20.227 8.6816 20.4601 8.6816Z" fill="white"/>
<path d="M20.0882 19.6477C20.5462 19.8835 20.8711 20.0507 20.9939 20.1275C21.1529 20.2269 21.0559 20.4143 20.9112 20.5165C20.7664 20.6187 18.8208 22.1236 18.632 22.2899C18.6078 22.3112 18.5822 22.3343 18.5555 22.3583C18.3736 22.5221 18.1415 22.731 17.977 22.731C17.8124 22.731 17.5802 22.5219 17.3983 22.3581C17.3716 22.3342 17.3461 22.3112 17.322 22.2899C17.1332 22.1236 15.1876 20.6187 15.0428 20.5165C14.898 20.4143 14.8011 20.2269 14.9601 20.1275C15.083 20.0507 15.4082 19.8833 15.8667 19.6473C16.0011 19.5781 16.1469 19.5031 16.3024 19.4227C16.9885 19.068 17.8436 18.7665 17.977 18.7665C18.1105 18.7665 18.9655 19.068 19.6516 19.4227C19.8075 19.5032 19.9536 19.5784 20.0882 19.6477Z" fill="white"/>
<path fill-rule="evenodd" clip-rule="evenodd" d="M23.4787 6.83354L21.4825 4.57141H17.977H14.4715L12.4754 6.83354C12.4754 6.83354 10.7226 6.34722 9.89496 7.17396C9.89496 7.17396 12.2319 6.96324 13.0353 8.26819C13.0353 8.26819 15.2019 8.68156 15.494 8.68156C15.7861 8.68156 16.419 8.4384 17.0033 8.24387C17.5875 8.04934 17.977 8.04793 17.977 8.04793C17.977 8.04793 18.3665 8.04934 18.9508 8.24387C19.535 8.4384 20.1679 8.68156 20.4601 8.68156C20.7522 8.68156 22.9188 8.26819 22.9188 8.26819C23.7221 6.96324 26.0591 7.17396 26.0591 7.17396C25.2314 6.34722 23.4787 6.83354 23.4787 6.83354Z" fill="#FF4724"/>
<path fill-rule="evenodd" clip-rule="evenodd" d="M38 17.5862V8.27478H38.895C39.6242 8.27478 40.2153 8.86307 40.2153 9.58877V13.7289C41.6496 12.4553 42.8693 11.9455 44.495 11.9128C47.613 11.8493 50.3193 14.154 50.5764 17.2476C50.8838 20.9433 48.1833 23.7252 44.6651 23.7252C40.8029 23.7252 38 21.3415 38 17.5862ZM40.1786 18.3172C40.397 20.2411 42.243 21.8302 44.1896 21.861C46.7258 21.8994 48.4539 20.2546 48.4539 17.8209C48.4539 15.3872 46.7644 13.7808 44.2998 13.7808C41.6651 13.775 39.8789 15.6797 40.1786 18.3172Z" fill="#545A71"/>
<path fill-rule="evenodd" clip-rule="evenodd" d="M54.2724 12.1455V13.8039C55.6661 12.2648 56.4915 11.8512 58.123 11.8512C58.5976 11.8517 59.0714 11.8897 59.54 11.9647V14.1675C59.04 14.0307 58.5236 13.9621 58.0051 13.9636C56.824 13.9636 55.8324 14.3483 55.1056 15.0756C54.4676 15.7123 54.2782 16.2106 54.2782 17.211V23.3442H51.9818V12.1455H54.2724Z" fill="#545A71"/>
<path fill-rule="evenodd" clip-rule="evenodd" d="M60.085 15.8489C60.2029 14.7581 60.4156 14.1675 60.8872 13.6C61.8325 12.4457 63.5336 11.8512 65.9421 11.8512C67.8559 11.8512 69.2496 12.1475 70.218 12.7823C71.0222 13.3037 71.3527 14.0771 71.3527 15.4392V20.4123C71.3527 21.5031 71.6369 21.8879 72.4159 21.8667C72.5899 21.8606 72.7635 21.8452 72.9359 21.8205V23.3192C72.5486 23.4509 72.1407 23.5122 71.7316 23.5001C70.2915 23.5001 69.6304 23.0691 69.1819 21.8186C67.765 23.1134 66.2998 23.6578 64.1985 23.6578C61.3879 23.6578 59.6636 22.3862 59.6636 20.318C59.6513 19.1387 60.3484 18.0662 61.4343 17.5939C62.2848 17.2303 62.8048 17.1168 65.2366 16.8667C67.3146 16.6627 67.6703 16.6166 68.2599 16.4338C68.8978 16.2299 69.1819 15.8893 69.1819 15.3218C69.1819 14.1175 68.1671 13.573 66.0407 13.573C64.0304 13.573 62.9942 13.9693 62.5786 14.9813C62.3728 15.4988 61.8717 15.8399 61.3125 15.8432L60.085 15.8489ZM69.1703 17.7574C67.7134 18.1791 66.2173 18.4531 64.705 18.575C62.6501 18.7789 62.0122 19.1656 62.0122 20.1872C62.0122 21.3223 62.9575 21.9186 64.8229 21.9186C66.3577 21.9186 67.5156 21.5339 68.343 20.7836C69.0041 20.1699 69.1703 19.7389 69.1703 18.6674V17.7574Z" fill="#545A71"/>
<path fill-rule="evenodd" clip-rule="evenodd" d="M78.4799 23.3423H77.8884C77.3673 23.3456 76.8906 23.0508 76.6628 22.5843L71.7084 12.1456H73.0848C73.8868 12.1392 74.6169 12.6048 74.9463 13.3326L78.2518 20.8356L81.6675 13.3037C82.0017 12.5874 82.7258 12.1316 83.5193 12.1379H84.77L79.6996 22.5959C79.4695 23.056 78.9963 23.3455 78.4799 23.3423Z" fill="#545A71"/>
<path fill-rule="evenodd" clip-rule="evenodd" d="M86.3223 18.3922C86.5581 20.5507 88.2554 21.8897 90.7857 21.8897C92.222 21.8897 93.2987 21.4645 93.9656 20.6161C94.3546 20.1296 94.9453 19.8463 95.57 19.8466H96.9019C95.7421 22.3899 93.666 23.6404 90.5711 23.6404C86.7051 23.6404 84.0993 21.301 84.0993 17.8035C84.0993 14.3059 86.7688 11.853 90.6195 11.853C93.405 11.853 95.6454 13.1016 96.5481 15.1928C96.9502 16.1547 97.1145 17.0089 97.1145 18.3941L86.3223 18.3922ZM94.7775 16.6607C94.2575 14.6849 92.7226 13.571 90.5963 13.571C88.4699 13.571 86.9351 14.6849 86.3919 16.6607H94.7775Z" fill="#545A71"/>
<path d="M116.501 20.802H110.972L110.022 23.5H107.761L112.492 10.276H115L119.731 23.5H117.451L116.501 20.802ZM115.893 19.035L113.746 12.898L111.58 19.035H115.893ZM121.066 18.218C121.066 17.1667 121.281 16.2357 121.712 15.425C122.155 14.6143 122.75 13.9873 123.498 13.544C124.258 13.088 125.1 12.86 126.025 12.86C126.709 12.86 127.38 13.012 128.039 13.316C128.71 13.6073 129.242 14 129.635 14.494V9.44H131.82V23.5H129.635V21.923C129.28 22.4297 128.786 22.8477 128.153 23.177C127.532 23.5063 126.816 23.671 126.006 23.671C125.094 23.671 124.258 23.443 123.498 22.987C122.75 22.5183 122.155 21.8723 121.712 21.049C121.281 20.213 121.066 19.2693 121.066 18.218ZM129.635 18.256C129.635 17.534 129.483 16.907 129.179 16.375C128.887 15.843 128.501 15.4377 128.02 15.159C127.538 14.8803 127.019 14.741 126.462 14.741C125.904 14.741 125.385 14.8803 124.904 15.159C124.422 15.425 124.03 15.824 123.726 16.356C123.434 16.8753 123.289 17.496 123.289 18.218C123.289 18.94 123.434 19.5733 123.726 20.118C124.03 20.6627 124.422 21.0807 124.904 21.372C125.398 21.6507 125.917 21.79 126.462 21.79C127.019 21.79 127.538 21.6507 128.02 21.372C128.501 21.0933 128.887 20.688 129.179 20.156C129.483 19.6113 129.635 18.978 129.635 18.256ZM138.465 23.671C137.641 23.671 136.9 23.5253 136.242 23.234C135.596 22.93 135.083 22.5247 134.703 22.018C134.323 21.4987 134.12 20.9223 134.095 20.289H136.337C136.375 20.7323 136.584 21.106 136.964 21.41C137.356 21.7013 137.844 21.847 138.427 21.847C139.035 21.847 139.503 21.733 139.833 21.505C140.175 21.2643 140.346 20.9603 140.346 20.593C140.346 20.2003 140.156 19.909 139.776 19.719C139.408 19.529 138.819 19.32 138.009 19.092C137.223 18.8767 136.584 18.6677 136.09 18.465C135.596 18.2623 135.165 17.952 134.798 17.534C134.443 17.116 134.266 16.565 134.266 15.881C134.266 15.3237 134.43 14.817 134.76 14.361C135.089 13.8923 135.558 13.525 136.166 13.259C136.786 12.993 137.496 12.86 138.294 12.86C139.484 12.86 140.441 13.164 141.163 13.772C141.897 14.3673 142.29 15.1843 142.341 16.223H140.175C140.137 15.7543 139.947 15.3807 139.605 15.102C139.263 14.8233 138.8 14.684 138.218 14.684C137.648 14.684 137.211 14.7917 136.907 15.007C136.603 15.2223 136.451 15.5073 136.451 15.862C136.451 16.1407 136.552 16.375 136.755 16.565C136.957 16.755 137.204 16.907 137.496 17.021C137.787 17.1223 138.218 17.2553 138.788 17.42C139.548 17.6227 140.168 17.8317 140.65 18.047C141.144 18.2497 141.568 18.5537 141.923 18.959C142.277 19.3643 142.461 19.9027 142.474 20.574C142.474 21.1693 142.309 21.7013 141.98 22.17C141.65 22.6387 141.182 23.006 140.574 23.272C139.978 23.538 139.275 23.671 138.465 23.671Z" fill="#111217"/>
</svg>
